<svg xmlns="http://www.w3.org/2000/svg" aria-hidden="true" style="position:absolute;width:0;height:0;overflow:hidden"><defs><symbol id="icon-exit" viewBox="0 0 32 32"><path fill="#fff" d="M20.051 23.237h2.499v4.997a3.752 3.752 0 0 1-3.748 3.748H3.748A3.752 3.752 0 0 1 0 28.234V3.748A3.752 3.752 0 0 1 3.748 0h15.054a3.752 3.752 0 0 1 3.748 3.748v4.997h-2.499V3.748a1.25 1.25 0 0 0-1.249-1.249H3.748a1.25 1.25 0 0 0-1.249 1.249v24.486a1.25 1.25 0 0 0 1.249 1.249h15.054a1.25 1.25 0 0 0 1.249-1.249v-4.997zm6.06-13.135-1.767 1.767 2.873 2.874H11.056v2.499h16.161l-2.873 2.873 1.767 1.767L32 15.993l-5.889-5.89z" opacity=".6" style="fill:var(--color1, #fff)"/></symbol><symbol id="icon-logo" viewBox="0 0 33 32"><path fill="#ffc727" d="M22.441 4.308c-2.219-.554-4.438-1.664-6.102-3.328-1.665 1.664-3.883 2.774-6.102 3.328.554 4.993 2.219 8.321 6.102 11.095 3.883-2.774 6.102-6.102 6.102-11.095z" style="fill:var(--color2, #ffc727)"/><path fill="#fbfbfb" d="M20.222 24.962 4.69 6.656v8.876L16.893 29.4l3.329-4.438zm1.664-1.664 6.657-7.766v-8.32l-10.54 12.203 3.883 3.884zm.555 2.775v4.993l6.102-7.212v-4.992l-6.102 7.212zm-11.651 0-6.102-7.212v4.993l6.102 7.212v-4.993z" style="fill:var(--color3, #fbfbfb)"/><symbol id="icon-statistics" viewBox="0 0 32 32"><path  d="M6.545 2.182h18.909a4.364 4.364 0 0 1 4.364 4.364v18.909a4.364 4.364 0 0 1-4.364 4.364H6.545a4.364 4.364 0 0 1-4.364-4.364V6.546a4.364 4.364 0 0 1 4.364-4.364zm17.091 12.04c.933 0 1.697-.8 1.697-1.778s-.764-1.778-1.697-1.778-1.697.8-1.697 1.778c0 .16.017.311.059.453l-3.012 3.164c-.136-.044-.288-.062-.441-.062s-.305.018-.441.062l-2.164-2.267c.042-.142.059-.302.059-.462 0-.978-.764-1.778-1.697-1.778s-1.697.8-1.697 1.778c0 .16.017.32.059.462l-3.869 4.044a1.396 1.396 0 0 0-.433-.062c-.933 0-1.697.8-1.697 1.778s.764 1.778 1.697 1.778 1.697-.8 1.697-1.778c0-.16-.017-.311-.059-.453l3.861-4.053c.136.044.288.062.441.062s.305-.018.441-.062l2.164 2.267a1.653 1.653 0 0 0-.059.462c0 .978.764 1.778 1.697 1.778s1.697-.8 1.697-1.778c0-.16-.017-.32-.059-.462l3.021-3.156c.136.044.28.062.433.062z"/></symbol><symbol id="icon-currency" viewBox="0 0 32 32"><path  d="M6.545 2.182a4.364 4.364 0 0 0-4.364 4.364v18.909a4.364 4.364 0 0 0 4.364 4.364h18.909a4.364 4.364 0 0 0 4.364-4.364V6.546a4.364 4.364 0 0 0-4.364-4.364H6.545zm7.093 11.344c0 .86.661 1.412 2.715 1.946s4.253 1.412 4.253 3.982c0 1.855-1.403 2.878-3.167 3.212v1.946h-2.715v-1.964c-1.737-.371-3.222-1.484-3.33-3.466h1.991c.1 1.068.833 1.9 2.697 1.9 2 0 2.443-.995 2.443-1.62 0-.842-.452-1.638-2.715-2.181-2.525-.606-4.253-1.647-4.253-3.737 0-1.747 1.412-2.887 3.167-3.267V8.322h2.715v1.982c1.891.462 2.841 1.891 2.905 3.448h-2c-.054-1.131-.651-1.9-2.262-1.9-1.529 0-2.443.688-2.443 1.674z"/></symbol><symbol id="icon-home" viewBox="0 0 32 32"><path  d="M6.545 2.182a4.364 4.364 0 0 0-4.364 4.364v18.909a4.364 4.364 0 0 0 4.364 4.364h18.909a4.364 4.364 0 0 0 4.364-4.364V6.546a4.364 4.364 0 0 0-4.364-4.364H6.545zm7.225 15.534v5.961H8.8v-7.948H5.818l9.939-8.941 9.939 8.941h-2.982v7.948h-4.97v-5.961h-3.976z"/></symbol><symbol id="ico" viewBox="0 0 32 32" width="60" height="50"><path   fill="#fff" style="fill: var(--color1, #fff)"  d="M8.828 3.862h14.345a3.31 3.31 0 0 1 3.31 3.31v14.345a3.31 3.31 0 0 1-3.31 3.31H8.828a3.31 3.31 0 0 1-3.31-3.31V7.172a3.31 3.31 0 0 1 3.31-3.31z"/><path  d="M8.828 3.862a3.31 3.31 0 0 0-3.31 3.31v14.345a3.31 3.31 0 0 0 3.31 3.31h14.345a3.31 3.31 0 0 0 3.31-3.31V7.172a3.31 3.31 0 0 0-3.31-3.31H8.828zm5.48 11.785v4.522h-3.77V14.14H8.276l7.54-6.783 7.54 6.783h-2.262v6.029h-3.77v-4.522h-3.016z" style="fill:var(--color2, #734aef)"/></symbol></symbol><symbol id="icon-user" viewBox="0 0 32 32"><path d="M16 20c-4.227 0-7.987 2.04-10.379 5.208-.515.681-.773 1.023-.764 1.483.007.356.229.805.509 1.025.363.284.865.284 1.869.284h17.528c1.004 0 1.507 0 1.869-.284.28-.22.503-.669.509-1.025.008-.46-.249-.8-.764-1.483C23.984 22.041 20.225 20 15.998 20zm0-4a6 6 0 1 0 0-12 6 6 0 1 0 0 12z"/></symbol><symbol id="icon-password" viewBox="0 0 32 32"><path d="M24 10.667h-1.333V8c0-3.68-2.987-6.667-6.667-6.667S9.333 4.32 9.333 8v2.667H8a2.675 2.675 0 0 0-2.667 2.667v13.333c0 1.467 1.2 2.667 2.667 2.667h16c1.467 0 2.667-1.2 2.667-2.667V13.334c0-1.467-1.2-2.667-2.667-2.667zm-8 12c-1.467 0-2.667-1.2-2.667-2.667s1.2-2.667 2.667-2.667 2.667 1.2 2.667 2.667-1.2 2.667-2.667 2.667zm4.133-12h-8.267V8c0-2.28 1.853-4.133 4.133-4.133S20.132 5.72 20.132 8v2.667z"/></symbol><symbol id="icon-email" viewBox="0 0 32 32"><path d="M26.667 5.333H5.334A2.663 2.663 0 0 0 2.681 8l-.013 16c0 1.467 1.2 2.667 2.667 2.667h21.333c1.467 0 2.667-1.2 2.667-2.667V8c0-1.467-1.2-2.667-2.667-2.667zm0 5.334L16 17.334 5.333 10.667V8L16 14.667 26.667 8v2.667z"/></symbol><symbol id="icon-logo" viewBox="0 0 33 32"><path fill="#ffc727" d="M22.441 4.308c-2.219-.554-4.438-1.664-6.102-3.328-1.665 1.664-3.883 2.774-6.102 3.328.554 4.993 2.219 8.321 6.102 11.095 3.883-2.774 6.102-6.102 6.102-11.095z" style="fill:var(--color1, #ffc727)"/><path fill="#fbfbfb" d="M20.222 24.962 4.69 6.656v8.876L16.893 29.4l3.329-4.438zm1.664-1.664 6.657-7.766v-8.32l-10.54 12.203 3.883 3.884zm.555 2.775v4.993l6.102-7.212v-4.992l-6.102 7.212zm-11.651 0-6.102-7.212v4.993l6.102 7.212v-4.993z" style="fill:var(--color2, #fbfbfb)"/></symbol><symbol id="icon-user" viewBox="0 0 32 32"><path d="M16 20c-4.227 0-7.987 2.04-10.379 5.208-.515.681-.773 1.023-.764 1.483.007.356.229.805.509 1.025.363.284.865.284 1.869.284h17.528c1.004 0 1.507 0 1.869-.284.28-.22.503-.669.509-1.025.008-.46-.249-.8-.764-1.483C23.984 22.041 20.225 20 15.998 20zm0-4a6 6 0 1 0 0-12 6 6 0 1 0 0 12z"/></symbol><symbol id="icon-email" viewBox="0 0 32 32"><path d="M26.667 5.333H5.334A2.663 2.663 0 0 0 2.681 8l-.013 16c0 1.467 1.2 2.667 2.667 2.667h21.333c1.467 0 2.667-1.2 2.667-2.667V8c0-1.467-1.2-2.667-2.667-2.667zm0 5.334L16 17.334 5.333 10.667V8L16 14.667 26.667 8v2.667z"/></symbol></defs></svg>
