<svg aria-hidden="true" style="position: absolute; width: 0; height: 0; overflow: hidden;" version="1.1" xmlns="http://www.w3.org/2000/svg" xmlns:xlink="http://www.w3.org/1999/xlink">
<defs>
<symbol id="icon-user" viewBox="0 0 32 32">
<path  d="M16 20c-4.227 0-7.987 2.040-10.379 5.208-0.515 0.681-0.773 1.023-0.764 1.483 0.007 0.356 0.229 0.805 0.509 1.025 0.363 0.284 0.865 0.284 1.869 0.284h17.528c1.004 0 1.507 0 1.869-0.284 0.28-0.22 0.503-0.669 0.509-1.025 0.008-0.46-0.249-0.8-0.764-1.483-2.393-3.167-6.152-5.208-10.379-5.208zM16 16c3.314 0 6-2.686 6-6s-2.686-6-6-6v0c-3.314 0-6 2.686-6 6s2.686 6 6 6v0z"></path>
</symbol>
<symbol id="icon-password" viewBox="0 0 32 32">
<path  d="M24 10.667h-1.333v-2.667c0-3.68-2.987-6.667-6.667-6.667s-6.667 2.987-6.667 6.667v2.667h-1.333c-1.467 0-2.667 1.2-2.667 2.667v13.333c0 1.467 1.2 2.667 2.667 2.667h16c1.467 0 2.667-1.2 2.667-2.667v-13.333c0-1.467-1.2-2.667-2.667-2.667zM16 22.667c-1.467 0-2.667-1.2-2.667-2.667s1.2-2.667 2.667-2.667 2.667 1.2 2.667 2.667-1.2 2.667-2.667 2.667zM20.133 10.667h-8.267v-2.667c0-2.28 1.853-4.133 4.133-4.133s4.133 1.853 4.133 4.133v2.667z"></path>
</symbol>
<symbol id="icon-email" viewBox="0 0 32 32">
<path  d="M26.667 5.333h-21.333c-1.467 0-2.653 1.2-2.653 2.667l-0.013 16c0 1.467 1.2 2.667 2.667 2.667h21.333c1.467 0 2.667-1.2 2.667-2.667v-16c0-1.467-1.2-2.667-2.667-2.667zM26.667 10.667l-10.667 6.667-10.667-6.667v-2.667l10.667 6.667 10.667-6.667v2.667z"></path>
</symbol>
</defs>
</svg>
